<svg width="60" height="44" viewBox="0 0 60 44" fill="none" xmlns="http://www.w3.org/2000/svg">
<path d="M57.6843 17.6411H2.2035C1.85628 17.643 1.51362 17.56 1.20399 17.399C0.894358 17.2379 0.626702 17.0034 0.423265 16.715C0.218708 16.4312 0.0831971 16.1014 0.0279928 15.7531C-0.0272114 15.4048 -0.00051487 15.048 0.105864 14.7124L4.19933 1.56444C4.33927 1.10932 4.61756 0.711994 4.99352 0.430531C5.36948 0.149069 5.82342 -0.00177794 6.28899 3.47359e-05H53.5909C54.0576 -0.00262709 54.5129 0.147758 54.8903 0.429217C55.2677 0.710676 55.5474 1.10846 55.6885 1.56444L59.7744 14.7119C59.8828 15.0466 59.9115 15.403 59.8581 15.7513C59.8046 16.0996 59.6707 16.4298 59.4674 16.7142C59.2639 17.0034 58.9959 17.2384 58.6857 17.3997C58.3755 17.5609 58.0321 17.6437 57.6843 17.6411ZM12.0757 13.8866L11.7758 16.1826C12.0382 16.2143 12.3021 16.2307 12.5663 16.2318C14.4915 16.2318 15.8362 14.8183 15.8362 12.7944V12.6344H26.7V10.0686C26.7 7.96285 25.0276 6.43486 22.7235 6.43486C22.0875 6.44518 21.4554 6.54009 20.8431 6.71722L21.0707 8.8406C21.4836 8.78239 21.8996 8.74973 22.3163 8.7428C22.78 8.70273 23.2431 8.82617 23.629 9.09268C23.7632 9.21329 23.8681 9.36429 23.9354 9.53371C24.0027 9.70312 24.0305 9.88628 24.0167 10.0686V10.3264H15.8366V6.43486H13.1536V12.794C13.1536 13.6267 12.8502 13.923 12.5663 13.923C12.4693 13.923 12.3188 13.9099 12.0757 13.8862V13.8866ZM21.3701 13.371V15.2492H24.0774V13.371H21.3701ZM47.1334 4.16374V12.6344H49.8164V4.16374H47.1334V4.16374ZM28.3769 4.16374V12.6344H45.457V4.16374H42.7741V10.3264H36.761V6.43486H34.0781V10.3264H31.0618V4.16374H28.3789H28.3769ZM35.6831 3.7218V5.60007H38.2103V3.7218H35.6831ZM32.6408 3.7218V5.60007H35.168V3.7218H32.6408Z" fill="#F25723"/>
<path d="M17.0205 35.714H14.4074V22.6602H11.4649V38.5273C11.4649 40.2378 10.2572 41.2956 7.97354 41.2956C5.66789 41.2956 4.21863 40.0802 4.21863 38.3922C4.35931 36.3319 4.60854 34.2808 4.96522 32.248L2.06669 31.8203C1.6934 34.2285 1.27618 37.1769 1.27618 38.3922C1.27618 41.6332 4.13079 43.9984 7.97354 43.9984C11.7724 43.9964 14.4074 41.7907 14.4074 38.5273V38.4147H17.0205C17.3718 38.4147 17.4596 37.8971 17.4596 37.0644C17.4596 36.2316 17.3718 35.714 17.0205 35.714ZM23.9813 22.4556H21.0389V25.5165H23.9813V22.4556ZM28.3051 22.4556H25.3627V25.5165H28.3051V22.4556ZM23.9374 27.1615C20.0946 27.1615 19.0406 28.917 19.0406 32.7881C19.0083 33.7747 19.1193 34.7608 19.37 35.714H17.0205C16.6691 35.714 16.5813 36.2316 16.5813 37.0644C16.5813 37.8971 16.6691 38.4147 17.0205 38.4147H29.2514V27.1615H23.9374ZM21.9811 32.7881C21.9811 29.9748 22.2007 29.8623 23.9374 29.8623H26.3089V35.714H23.9374C22.2027 35.714 21.9831 35.6014 21.9831 32.7881H21.9811ZM38.979 35.714H35.7072V22.6602H32.7647V38.4147H38.979C39.3303 38.4147 39.4182 37.8971 39.4182 37.0644C39.4182 36.2316 39.3303 35.714 38.979 35.714ZM44.5345 22.4556H41.5921V25.5165H44.5345V22.4556ZM47.1476 35.714H44.5345V27.1615H41.5921V35.714H38.979C38.6276 35.714 38.5398 36.2316 38.5398 37.0644C38.5398 37.8971 38.6276 38.4147 38.979 38.4147H47.1476C47.4989 38.4147 47.5867 37.8971 47.5867 37.0644C47.5867 36.2316 47.4989 35.714 47.1476 35.714V35.714ZM50.4194 22.6602V35.714H47.1476C46.7962 35.714 46.7084 36.2316 46.7084 37.0644C46.7084 37.8971 46.7962 38.4147 47.1476 38.4147H53.3618V22.6602H50.4194ZM56.8752 38.4147H59.8176V22.6602H56.8752V38.4147Z" fill="#F25723"/>
</svg>
