<svg width="92" height="92" viewBox="0 0 92 92" fill="none" xmlns="http://www.w3.org/2000/svg">
<path d="M75 0H17C7.61116 0 0 7.61116 0 17V75C0 84.3888 7.61116 92 17 92H75C84.3888 92 92 84.3888 92 75V17C92 7.61116 84.3888 0 75 0Z" fill="#EEEEEE"/>
<path d="M73.6843 41.6411H18.2035C17.8563 41.643 17.5136 41.56 17.204 41.399C16.8944 41.2379 16.6267 41.0034 16.4233 40.715C16.2187 40.4312 16.0832 40.1014 16.028 39.7531C15.9728 39.4048 15.9995 39.048 16.1059 38.7124L20.1993 25.5644C20.3393 25.1093 20.6176 24.712 20.9935 24.4305C21.3695 24.1491 21.8234 23.9982 22.289 24H69.5909C70.0576 23.9974 70.5129 24.1478 70.8903 24.4292C71.2677 24.7107 71.5474 25.1085 71.6885 25.5644L75.7744 38.7119C75.8828 39.0466 75.9115 39.403 75.8581 39.7513C75.8046 40.0996 75.6707 40.4298 75.4674 40.7142C75.2639 41.0034 74.9959 41.2384 74.6857 41.3997C74.3755 41.5609 74.0321 41.6437 73.6843 41.6411ZM28.0757 37.8866L27.7758 40.1826C28.0382 40.2143 28.3021 40.2307 28.5663 40.2318C30.4915 40.2318 31.8362 38.8183 31.8362 36.7944V36.6344H42.7V34.0686C42.7 31.9628 41.0276 30.4349 38.7235 30.4349C38.0875 30.4452 37.4554 30.5401 36.8431 30.7172L37.0707 32.8406C37.4836 32.7824 37.8996 32.7497 38.3163 32.7428C38.78 32.7027 39.2431 32.8262 39.629 33.0927C39.7632 33.2133 39.8681 33.3643 39.9354 33.5337C40.0027 33.7031 40.0305 33.8863 40.0167 34.0686V34.3264H31.8366V30.4349H29.1536V36.794C29.1536 37.6267 28.8502 37.923 28.5663 37.923C28.4693 37.923 28.3188 37.9099 28.0757 37.8862V37.8866ZM37.3701 37.371V39.2492H40.0774V37.371H37.3701ZM63.1334 28.1637V36.6344H65.8164V28.1637H63.1334ZM44.3769 28.1637V36.6344H61.457V28.1637H58.7741V34.3264H52.761V30.4349H50.0781V34.3264H47.0618V28.1637H44.3789H44.3769ZM51.6831 27.7218V29.6001H54.2103V27.7218H51.6831ZM48.6408 27.7218V29.6001H51.168V27.7218H48.6408Z" fill="#F25723"/>
<path d="M33.0205 59.714H30.4074V46.6602H27.4649V62.5273C27.4649 64.2378 26.2572 65.2956 23.9735 65.2956C21.6679 65.2956 20.2186 64.0802 20.2186 62.3922C20.3593 60.3319 20.6085 58.2808 20.9652 56.248L18.0667 55.8203C17.6934 58.2285 17.2762 61.1769 17.2762 62.3922C17.2762 65.6332 20.1308 67.9984 23.9735 67.9984C27.7724 67.9964 30.4074 65.7907 30.4074 62.5273V62.4147H33.0205C33.3718 62.4147 33.4596 61.8971 33.4596 61.0644C33.4596 60.2316 33.3718 59.714 33.0205 59.714ZM39.9813 46.4556H37.0389V49.5165H39.9813V46.4556ZM44.3051 46.4556H41.3627V49.5165H44.3051V46.4556ZM39.9374 51.1615C36.0946 51.1615 35.0406 52.917 35.0406 56.7881C35.0083 57.7747 35.1193 58.7608 35.37 59.714H33.0205C32.6691 59.714 32.5813 60.2316 32.5813 61.0644C32.5813 61.8971 32.6691 62.4147 33.0205 62.4147H45.2514V51.1615H39.9374ZM37.9811 56.7881C37.9811 53.9748 38.2007 53.8623 39.9374 53.8623H42.3089V59.714H39.9374C38.2027 59.714 37.9831 59.6014 37.9831 56.7881H37.9811ZM54.979 59.714H51.7072V46.6602H48.7647V62.4147H54.979C55.3303 62.4147 55.4182 61.8971 55.4182 61.0644C55.4182 60.2316 55.3303 59.714 54.979 59.714ZM60.5345 46.4556H57.592V49.5165H60.5345V46.4556ZM63.1476 59.714H60.5345V51.1615H57.592V59.714H54.979C54.6276 59.714 54.5398 60.2316 54.5398 61.0644C54.5398 61.8971 54.6276 62.4147 54.979 62.4147H63.1476C63.4989 62.4147 63.5867 61.8971 63.5867 61.0644C63.5867 60.2316 63.4989 59.714 63.1476 59.714ZM66.4194 46.6602V59.714H63.1476C62.7962 59.714 62.7084 60.2316 62.7084 61.0644C62.7084 61.8971 62.7962 62.4147 63.1476 62.4147H69.3618V46.6602H66.4194ZM72.8752 62.4147H75.8176V46.6602H72.8752V62.4147Z" fill="#F25723"/>
</svg>
