<svg width="721" height="510" viewBox="0 0 721 510" fill="none" xmlns="http://www.w3.org/2000/svg">
<path d="M193.329 445.389H162.907V449.017C162.975 459.868 159.846 470.498 153.909 479.582C147.609 489.139 138.805 496.784 128.458 501.682C116.485 507.353 103.355 510.157 90.109 509.869C76.5307 510.115 63.0696 507.318 50.7138 501.682C39.8872 496.801 30.5541 489.127 23.6723 479.449C17.2708 470.407 13.8602 459.587 13.9187 448.509C15.5552 423.471 18.687 398.553 23.2974 373.888L56.0592 375.702C53.971 388.88 52.0582 402.575 50.3208 416.789C48.5833 431.002 47.7166 440.362 47.7206 444.869C47.6982 450.861 49.5155 456.715 52.927 461.642C56.6211 466.946 61.705 471.13 67.6208 473.735C74.2644 476.747 81.4909 478.256 88.7848 478.155C95.9232 478.299 102.998 476.786 109.453 473.735C115.069 471.106 119.841 466.965 123.234 461.775C126.405 456.899 128.084 451.205 128.065 445.389V263.388H162.907V413.669H193.329V445.389ZM338.157 319.016V445.389H193.329V413.669H221.144C218.054 401.964 216.567 389.893 216.724 377.788C216.096 364.974 218.643 352.202 224.138 340.608C229.014 331.649 237.019 324.799 246.626 321.368C259.445 317.129 272.914 315.193 286.408 315.648C299.172 315.557 311.932 316.163 324.63 317.462L338.157 319.016ZM252.092 384.288C251.985 389.65 252.421 395.008 253.392 400.282C254.376 404.802 255.587 409.27 257.02 413.669H303.303V347.368C295.676 346.848 289.695 346.588 285.362 346.588C278.247 346.219 271.131 347.28 264.434 349.708C262.152 350.748 260.115 352.259 258.457 354.141C256.799 356.022 255.557 358.233 254.813 360.628C252.676 368.324 251.758 376.308 252.092 384.288V384.288ZM246.892 258.708H273.673V291.202H246.892V258.708ZM286.414 258.708H313.196V291.202H286.414V258.708ZM432.282 413.669V445.389H371.959V263.388H406.801V413.669H432.282ZM544.869 413.669V445.389H432.282V413.669H471.024V315.388H505.866V413.669H544.869ZM472.064 257.408H504.022V291.208H472.064V257.408ZM611.692 263.388V445.389H544.869V413.669H576.85V263.388H611.692ZM653.295 263.388H688.137V445.389H653.295V263.388Z" fill="#FAFAFA"/>
<path fill-rule="evenodd" clip-rule="evenodd" d="M26.4674 207.052H693.834C697.997 207.082 702.108 206.122 705.827 204.251C709.545 202.38 712.766 199.651 715.223 196.291C717.68 192.931 719.303 189.034 719.958 184.923C720.612 180.812 720.28 176.604 718.989 172.647L669.84 18.3575C668.129 13.0144 664.761 8.35489 660.224 5.05428C655.687 1.75367 650.217 -0.0166333 644.607 0.00011779H75.598C69.999 -0.00806501 64.5433 1.77107 60.0255 5.07827C55.5076 8.38547 52.1631 13.0482 50.4791 18.3878L1.234 172.677C-0.0214887 176.639 -0.324559 180.84 0.350445 184.941C1.02545 189.041 2.65902 192.924 5.1181 196.274C7.57718 199.624 10.7923 202.346 14.5021 204.219C18.2118 206.092 22.3116 207.062 26.4674 207.052ZM194.765 149.107V79.5723H176.105V132.141H132.434C118.728 132.141 111.875 127.412 111.875 117.956C112.076 113.298 112.541 108.654 113.266 104.049L114.239 95.2933L99.2251 94.477C98.1125 98.7458 97.1147 103.452 96.2319 108.596C95.4039 113.107 94.9549 117.68 94.8895 122.267C94.4249 128.543 96.3712 134.76 100.332 139.651C104.029 143.588 108.871 146.262 114.173 147.294C120.929 148.607 127.802 149.215 134.684 149.107H194.765ZM154.433 160.233H137.326V178.312H154.433V160.233ZM259.158 77.8308C253.481 77.1575 247.769 76.8103 242.052 76.7908C235.998 76.562 229.961 77.5787 224.316 79.7778C219.465 82.1517 215.726 86.3161 213.885 91.3932C211.055 99.47 209.805 108.016 210.203 116.565C210.203 138.26 219.799 149.107 238.992 149.107H255.125C255.252 152.715 254.856 156.322 253.952 159.816C253.412 161.969 252.102 163.849 250.269 165.101C248.133 166.231 245.729 166.76 243.316 166.63C235.762 166.251 228.238 165.415 220.785 164.127V180.93C228.776 182.371 236.858 183.254 244.972 183.573C248.579 183.841 252.198 183.286 255.559 181.951C258.919 180.615 261.932 178.534 264.371 175.863C268.636 170.816 271.47 164.717 272.576 158.201C273.771 151.148 274.354 144.005 274.318 136.851V80.2495C269.311 79.1763 264.251 78.3689 259.158 77.8308ZM231.917 127.34C229.768 123.757 228.699 119.629 228.839 115.452C228.613 110.759 229.267 106.065 230.768 101.612C231.713 98.9056 233.662 96.6655 236.21 95.3537C239.169 94.1706 242.345 93.6266 245.529 93.7574C248.924 93.7676 252.316 93.9999 255.681 94.4528V132.135H244.156C241.876 132.447 239.555 132.17 237.412 131.33C235.27 130.491 233.378 129.117 231.917 127.34ZM286.835 149.107H364.579H424.8V132.141H403.938V79.5723H385.302V132.141H364.579L350.121 132.111V125.296C350.381 116.082 348.796 106.909 345.459 98.3165C342.859 91.6366 338.3 85.8992 332.38 81.8578C326.554 78.1348 319.755 76.224 312.842 76.3676C309.466 76.3934 306.097 76.6724 302.762 77.202C299.098 77.7623 295.828 78.367 292.954 79.016L294.345 93.6184H308.392C311.506 93.6177 314.582 94.3096 317.397 95.644C320.211 96.9784 322.693 98.9219 324.664 101.334C329.207 106.481 331.479 115.082 331.479 127.134V132.141H286.835V149.107ZM402.965 48.5595H385.858V66.6387H402.965V48.5595ZM519.79 149.107H527.439H563.182V51.7581H544.539V132.141H527.439L519.808 132.105C518.187 132.09 516.618 131.527 515.357 130.508C513.926 129.385 512.861 127.861 512.298 126.131V114.34C512.509 107.56 511.591 100.793 509.583 94.3137C507.748 89.1829 504.014 84.9517 499.152 82.4927C492.246 79.3488 484.683 77.9176 477.105 78.3206C471.603 78.275 466.109 78.7406 460.694 79.7113C456.868 80.3154 453.13 81.3897 449.568 82.9099C448.104 87.8882 446.943 92.9503 446.091 98.0686C445.11 103.485 444.598 108.975 444.561 114.479C444.65 120.415 445.302 126.328 446.508 132.141H424.812V149.107H512.28V143.127C512.879 144.821 513.939 146.314 515.339 147.439C516.583 148.497 518.157 149.087 519.79 149.107ZM463.233 124.153C462.828 120.945 462.627 117.713 462.629 114.479C462.713 108.314 463.359 102.17 464.558 96.1216C468.033 95.385 471.575 95.0121 475.128 95.0091C477.759 94.6813 480.43 94.9214 482.96 95.7131C485.491 96.5047 487.822 97.8296 489.797 99.5984C492.68 103.792 494.029 108.851 493.619 113.923V132.153H464.552C464.076 130.113 463.637 127.447 463.233 124.153ZM604.071 51.7581H585.434V149.107H604.071V51.7581Z" fill="#FAFAFA"/>
</svg>
